<?xml version="1.0" encoding="utf-8"?>
<svg width="51px" height="51px" viewBox="0 0 51 51" version="1.1" xmlns:xlink="http://www.w3.org/1999/xlink" xmlns="http://www.w3.org/2000/svg">
  <defs>
    <path d="M0 0L51 0L51 51L0 51L0 0Z" id="path_1" />
    <clipPath id="mask_1">
      <use xlink:href="#path_1" />
    </clipPath>
  </defs>
  <g id="linkedin">
    <path d="M0 0L51 0L51 51L0 51L0 0Z" id="Background" fill="none" fill-rule="evenodd" stroke="none" />
    <g clip-path="url(#mask_1)">
      <g id="surface14933458">
        <path d="M6.07143 0C2.73214 0 0 2.78571 0 6.19048L0 45.8095C0 49.2143 2.73214 52 6.07143 52L44.9286 52C48.2679 52 51 49.2143 51 45.8095L51 6.19048C51 2.78571 48.2679 0 44.9286 0L6.07143 0ZM6.07143 2.47619L44.9286 2.47619C46.954 2.47619 48.5714 4.12537 48.5714 6.19047L48.5714 45.8095C48.5714 47.8746 46.954 49.5238 44.9286 49.5238L6.07143 49.5238C4.04604 49.5238 2.42857 47.8746 2.42857 45.8095L2.42857 6.19047C2.42857 4.12537 4.04604 2.47619 6.07143 2.47619L6.07143 2.47619ZM12.1429 8.68117C10.8147 8.68117 9.61467 9.08742 8.73242 9.84672C7.84542 10.606 7.29994 11.7426 7.29994 12.9565C7.29994 15.2682 9.26841 17.0722 11.7681 17.2511C11.7681 17.2511 11.7729 17.2511 11.7729 17.2511C11.8915 17.2946 12.0148 17.3188 12.1429 17.3188C14.9035 17.3188 16.9858 15.3456 16.9858 12.9565C16.9858 12.9371 16.9858 12.9129 16.9858 12.8936C16.8577 10.5432 14.8038 8.68117 12.1429 8.68117L12.1429 8.68117ZM12.1429 11.1283C13.8315 11.1283 14.5003 11.8973 14.5762 12.9903C14.5572 14.0495 13.9169 14.8717 12.1429 14.8717C10.459 14.8717 9.70005 13.9914 9.70005 12.9613C9.70005 12.4438 9.88504 12.0521 10.274 11.7184C10.6629 11.3847 11.2891 11.1283 12.1429 11.1283L12.1429 11.1283ZM8.5 18.5714C7.83119 18.5714 7.28571 19.1276 7.28571 19.8095L7.28571 43.3333C7.28571 44.0153 7.83119 44.5714 8.5 44.5714L15.7857 44.5714C16.4545 44.5714 17 44.0153 17 43.3333L17 19.8095C17 19.1276 16.4545 18.5714 15.7857 18.5714L8.5 18.5714ZM19.4286 18.5714C18.7598 18.5714 18.2143 19.1276 18.2143 19.8095L18.2143 43.3333C18.2143 44.0153 18.7598 44.5714 19.4286 44.5714L26.7143 44.5714C27.3831 44.5714 27.9286 44.0153 27.9286 43.3333L27.9286 30.9524C27.9286 29.9271 28.2037 28.9018 28.6875 28.2344C29.1713 27.567 29.7832 27.1656 30.9406 27.1849C32.1406 27.2042 32.7715 27.625 33.2506 28.2827C33.7344 28.9356 34 29.9223 34 30.9524L34 43.3333C34 44.0153 34.5455 44.5714 35.2143 44.5714L42.5 44.5714C43.1688 44.5714 43.7143 44.0153 43.7143 43.3333L43.7143 30.0383C43.7143 26.3724 42.647 23.4658 40.8209 21.5022C38.9994 19.5387 36.457 18.5714 33.7723 18.5714C31.2204 18.5714 29.2757 19.442 27.9286 20.3367L27.9286 19.8095C27.9286 19.1276 27.3831 18.5714 26.7143 18.5714L19.4286 18.5714ZM9.71429 21.0476L14.5714 21.0476L14.5714 42.0952L9.71429 42.0952L9.71429 21.0476ZM20.6429 21.0476L25.5 21.0476L25.5 22.9773C25.5 23.5141 25.832 23.9833 26.3301 24.1525C26.8234 24.3218 27.3689 24.1477 27.6819 23.7221C27.6819 23.7221 29.5935 21.0476 33.7723 21.0476C35.9021 21.0476 37.7282 21.7682 39.0611 23.2046C40.394 24.641 41.2857 26.8512 41.2857 30.0383L41.2857 42.0952L36.4286 42.0952L36.4286 30.9524C36.4286 29.5063 36.0871 28.0167 35.2001 26.8028C34.3178 25.5841 32.8237 24.7426 30.9833 24.7087C29.1381 24.6749 27.6203 25.5406 26.7333 26.769C25.8463 27.9926 25.5 29.5015 25.5 30.9524L25.5 42.0952L20.6429 42.0952L20.6429 21.0476Z" id="Shape" fill="#3FF587" fill-rule="evenodd" stroke="none" />
      </g>
    </g>
  </g>
</svg>